# xmcd
#
# Track frame offsets: 
#        150
#        16408
#        31894
#        47149
#        61811
#        80579
#        96804
#        110237
#        126219
#        141095
#        153885
#        167621
#        182518
#        197096
#        210538
#        227647
#        241713
#
# Disc length: 3442 seconds
#
# Revision: 0
# Processed by: cddbd v1.5.2PL0 Copyright (c) Steve Scherf et al.
# Submitted via: ExactAudioCopy v0.99pb4
#
DISCID=da0d7011
DTITLE=Various Artist - Vlaanderen Muziekland 2013 - CD 1
DYEAR=2013
DGENRE=Folk
TTITLE0=Ozark Henry - I'm Your Sacrifice
TTITLE1=Axelle Red - Quelque Part Ailleurs
TTITLE2=Paulien Mathues - There's Some Place I've Got To Be
TTITLE3=3M8S - My Island
TTITLE4=Milk Inc. - Sweet Child O' Mine
TTITLE5=DJ F.R.A.N.K. Feat. Craig Smart and Tom E - Burning It Up
TTITLE6=Nelson - Something For The Ladies
TTITLE7=Brahim - Ready To Go
TTITLE8=Bent Van Looy - Shadow Of A Man
TTITLE9=Kato - Sugar Rush
TTITLE10=Roberto Bellarosa - Love Kills
TTITLE11=Ian Thomas - Lalaland
TTITLE12=Rocco Granata Con Enrique Noviello and Los Auténticos Decadente
TTITLE12=s - El Murguero (Venite Tutti A Ballar)
TTITLE13=Natalia - Overdrive
TTITLE14=Robby Longo - The World
TTITLE15=Airis - Tomorrow I'll Be OK
TTITLE16=Adya - Largo Al Factotum
EXTD=
EXTT0=
EXTT1=
EXTT2=
EXTT3=
EXTT4=
EXTT5=
EXTT6=
EXTT7=
EXTT8=
EXTT9=
EXTT10=
EXTT11=
EXTT12=
EXTT13=
EXTT14=
EXTT15=
EXTT16=
PLAYORDER=
